<?xml version="1.0" encoding="UTF-8"?>
<svg id="SVGDoc" width="46" height="46" xmlns="http://www.w3.org/2000/svg" version="1.1" xmlns:xlink="http://www.w3.org/1999/xlink" xmlns:avocode="https://avocode.com/" viewBox="0 0 46 46"><defs></defs><desc>Generated with Avocode.</desc><g><g><title>Group 1</title><g><title>Ellipse 9</title><path d="M46,23c0,12.7025 -10.2975,23 -23,23c-12.7025,0 -23,-10.2975 -23,-23c0,-12.7025 10.2975,-23 23,-23c12.7025,0 23,10.2975 23,23z" fill="#ce3730" fill-opacity="1"></path></g><g><title>Ellipse 1 (Stroke)</title><path d="M15.98488,21.33648c0,-3.50789 2.84371,-6.3516 6.3516,-6.3516c3.50792,0 6.35162,2.84371 6.35162,6.3516c0,3.50792 -2.8437,6.35162 -6.35162,6.35162c-3.50789,0 -6.3516,-2.8437 -6.3516,-6.35162zM22.33648,29.673c4.60412,0 8.33652,-3.7324 8.33652,-8.33652c0,-4.60411 -3.7324,-8.33648 -8.33652,-8.33648c-4.60411,0 -8.33648,3.73237 -8.33648,8.33648c0,4.60412 3.73237,8.33652 8.33648,8.33652z" fill="#ffffff" fill-opacity="1"></path></g><g transform="rotate(45 30.350000000000023 29.690000000000005)"><title>Line 3 (Stroke)</title><path d="M34.0385,30.68488v0h-7.3785v0v-1.98488v0h7.3785v0z" fill="#ffffff" fill-opacity="1"></path></g></g></g></svg>