<svg xmlns="http://www.w3.org/2000/svg" width="17" height="21" viewBox="0 0 17 21"><defs><clipPath id="x3ifa"><path fill="#fff" d="M17 8.077C17 14.538 9.35 21 8.5 21 7.65 21 0 14.538 0 8.077 0 3.617 3.806 0 8.5 0S17 3.616 17 8.077z"/></clipPath><clipPath id="x3ifb"><path fill="#fff" d="M12 8.5a3.5 3.5 0 1 1-7 0 3.5 3.5 0 0 1 7 0z"/></clipPath></defs><g><g><g><path fill="none" stroke="#000" stroke-miterlimit="20" stroke-width="3.6" d="M17 8.077C17 14.538 9.35 21 8.5 21 7.65 21 0 14.538 0 8.077 0 3.617 3.806 0 8.5 0S17 3.616 17 8.077z" clip-path="url(&quot;#x3ifa&quot;)"/></g><g><path fill="none" stroke="#000" stroke-miterlimit="20" stroke-width="3.6" d="M12 8.5a3.5 3.5 0 1 1-7 0 3.5 3.5 0 0 1 7 0z" clip-path="url(&quot;#x3ifb&quot;)"/></g></g></g></svg>