<svg xmlns="http://www.w3.org/2000/svg" width="18" height="20" viewBox="0 0 18 20"><g><g><g><path d="M15.95 11.89a3.92 3.92 0 0 1 1.472 3.058v.715a1.742 1.742 0 0 1-1.742 1.742h-3.602a3.484 3.484 0 0 1-6.738 0H1.742A1.742 1.742 0 0 1 0 15.663v-.723a3.92 3.92 0 0 1 1.472-3.05l.38-.304a.872.872 0 0 0 .326-.68V7.388A6.533 6.533 0 0 1 7.448.98a1.307 1.307 0 0 1 2.53 0 6.533 6.533 0 0 1 5.266 6.407v3.52a.872.872 0 0 0 .327.68zm-6.371 6.151c.263-.153.482-.372.635-.636H7.213a1.742 1.742 0 0 0 1.498.871c.305-.001.604-.082.868-.235zm6.1-3.093a2.178 2.178 0 0 0-.818-1.694l-.379-.305a2.614 2.614 0 0 1-.98-2.042v-3.52a4.791 4.791 0 1 0-9.582 0v3.52a2.613 2.613 0 0 1-.98 2.038l-.379.305a2.176 2.176 0 0 0-.819 1.698v.715H15.68z"/></g></g></g></svg>